<svg xmlns="http://www.w3.org/2000/svg" display="none">

<!-- header -->

   <symbol>
      <path id='instagram' d="M19.995 13.33c-3.673 0-6.67 2.998-6.67 6.67 0 3.672 2.997 6.67 6.67 6.67 3.672 0 6.669-2.998 6.669-6.67 0-3.672-2.997-6.67-6.67-6.67ZM39.998 20c0-2.762.025-5.499-.13-8.256-.155-3.202-.886-6.044-3.227-8.385C34.294 1.012 31.457.287 28.255.132 25.493-.024 22.756.002 20 .002c-2.762 0-5.499-.026-8.256.13C8.542.287 5.7 1.017 3.36 3.359 1.012 5.705.287 8.542.132 11.744c-.156 2.762-.13 5.5-.13 8.256 0 2.757-.026 5.499.13 8.256.155 3.202.885 6.044 3.227 8.385 2.346 2.347 5.183 3.072 8.385 3.227 2.762.155 5.499.13 8.256.13 2.761 0 5.498.026 8.255-.13 3.202-.155 6.044-.885 8.386-3.227 2.346-2.346 3.072-5.183 3.227-8.385.16-2.757.13-5.494.13-8.256ZM19.995 30.262A10.247 10.247 0 0 1 9.733 20 10.247 10.247 0 0 1 19.995 9.738 10.247 10.247 0 0 1 30.256 20a10.247 10.247 0 0 1-10.261 10.262Zm10.682-18.548a2.394 2.394 0 0 1-2.397-2.396 2.394 2.394 0 0 1 2.397-2.397 2.394 2.394 0 0 1 2.215 3.314 2.394 2.394 0 0 1-2.215 1.48Z"/>
     </symbol> 

    <symbol>
      <path id="facebook" d="M34.1 0H5.897C2.653 0 0 2.653 0 5.896v28.208C0 37.347 2.653 40 5.896 40h28.208C37.347 40 40 37.347 40 34.104V5.896C39.997 2.653 37.347 0 34.1 0Zm-.378 21.35h-4.747v17.173h-7.102V21.349H18.32v-5.92h3.553v-3.552c0-4.83 2.005-7.702 7.71-7.702h4.742v5.918h-2.966c-2.217 0-2.365.83-2.365 2.374l-.019 2.963h5.373l-.626 5.92Z"/>
     </symbol>

     <symbol >
      <g id='tiktok'><path d="M41 10.667v18.666A11.667 11.667 0 0 1 29.333 41H10.667A11.667 11.667 0 0 1-1 29.333V10.667A11.667 11.667 0 0 1 10.667-1h18.666A11.667 11.667 0 0 1 41 10.667Z"/>
      <path stroke-linecap="round" stroke-linejoin="round" stroke-width="4" d="M15.333 20a7 7 0 1 0 7 7V6c.777 2.333 3.734 7 9.334 7"/></g>
     </symbol>


     <symbol>
       <path id ='star' d="m15 0 3.712 9.783L30 13l-11.288 3.217L15 26l-3.712-9.783L0 13l11.288-3.217L15 0Z"/>
     </symbol>

     <symbol>
       <path id='bigStar' d="m58.5 0 14.478 40.26L117 53.5 72.978 66.74 58.5 107 44.022 66.74 0 53.5l44.022-13.24L58.5 0Z"/>
     </symbol>

     <symbol>
       <g id='starText' clip-path="url(#a)" >
          <path fill="#007AFF" d="m62 17 8.662 23.126L97 47.732l-26.338 7.605L62 78.463l-8.662-23.126L27 47.732l26.338-7.606L62 17Z"/>

          <path  id='path' d="M26 85C14.835 74.33 5.74 59.89 10.045 45.057l.157-.53a51.956 51.956 0 0 1 3.641-8.949l.765-1.47c4.295-8.264 10.827-15.215 18.883-20.096a52.383 52.383 0 0 1 15.9-6.352l1.181-.26a60.186 60.186 0 0 1 26.615.181L85.5 9.527c9.45 3.493 16.683 10.873 22.805 19.107 5.265 7.08 6.803 16.19 5.196 24.866"  fill='transparent' />

          <text x="100" y="100" fill='#007AFF' font-size="26" letter-spacing="-3.5" dy="-20" text-anchor="middle">
              <textPath href='#path'>ніхто не засудить</textPath>
          </text>
        </g>
     </symbol>

     <symbol>
       <path id='menuBurger' d="M6.667 30h26.666C34.25 30 35 29.25 35 28.333c0-.916-.75-1.666-1.667-1.666H6.667c-.917 0-1.667.75-1.667 1.666C5 29.25 5.75 30 6.667 30Zm0-8.333h26.666c.917 0 1.667-.75 1.667-1.667s-.75-1.667-1.667-1.667H6.667C5.75 18.333 5 19.083 5 20s.75 1.667 1.667 1.667ZM5 11.667c0 .916.75 1.666 1.667 1.666h26.666c.917 0 1.667-.75 1.667-1.666C35 10.75 34.25 10 33.333 10H6.667C5.75 10 5 10.75 5 11.667Z"/>
     </symbol>


<!-- about section -->

      <symbol>
          <path id='middleStar' d="m23 0 5.692 16.179L46 21.5l-17.308 5.321L23 43l-5.692-16.179L0 21.5l17.308-5.321L23 0Z"/>
      </symbol>

     

<!-- join section -->

      <symbol>
        <g id='email'>
          <path d="m41.21 29.94 15.377-13.36v26.568L41.21 29.94Zm-19.815 2.262 5.4 4.688a4.866 4.866 0 0 0 3.16 1.155h.075c1.21 0 2.315-.438 3.172-1.163l-.007.006 5.4-4.688L55.01 46.297H4.987l16.408-14.094Zm-16.43-18.79H55.04l-24.052 20.89a1.53 1.53 0 0 1-.95.33h-.068c-.346 0-.682-.116-.953-.332l.003.003-24.055-20.89Zm-1.552 3.165 15.375 13.36-15.376 13.2v-26.56Zm54-6.102c-.6-.3-1.305-.475-2.053-.475H4.648c-.725 0-1.44.169-2.088.492l.027-.012A4.64 4.64 0 0 0 0 14.637v30.43a4.65 4.65 0 0 0 4.645 4.645h50.707a4.65 4.65 0 0 0 4.646-4.645v-30.43a4.632 4.632 0 0 0-2.573-4.15l-.027-.012h.014Z"/></g>
              <path d="M0 0h60v60H0z"/>
        </symbol>

 <!-- <symbol>
       <path id="dotLine" fill="#007AFF" d="M3.5 62.667a2.667 2.667 0 1 0 0-5.334 2.667 2.667 0 0 0 0 5.334ZM4 60V0H3v60h1Z"/>
    </symbol> -->

     

<!-- team section -->

      <symbol>
        <path id='microStar' d="m7.5 0 1.856 5.276L15 7.01 9.356 8.746 7.5 14.022 5.644 8.746 0 7.011l5.644-1.735L7.5 0Z"/>
      </symbol>


<!-- psychologists section  -->

  <symbol id='starTextPsychologists'>
            <path
              d="M56.8743 49.2381L65.6386 56.6324L78.0315 53.7245L69.0966 62.7913L70.8466 74.1238L62.0823 66.7295L49.6895 69.6374L58.6243 60.5706L56.8743 49.2381Z"
              fill="#1F7BDF" />
            <path
              d="M49.5327 88.6233L45.0036 93.18L44.3874 92.5675L46.3888 90.5539L43.5159 87.6984L41.5145 89.712L40.8982 89.0995L45.4274 84.5428L46.0436 85.1553L44.0422 87.1689L46.9151 90.0244L48.9165 88.0108L49.5327 88.6233Z"
              fill="#1F7BDF" />
            <path
              d="M43.6073 82.8675L38.5383 86.8149L38.0045 86.1293L43.0735 82.1819L43.6073 82.8675ZM37.1476 87.3395C37.2579 87.4811 37.3024 87.6377 37.281 87.8095C37.2597 87.9812 37.1814 88.1197 37.0462 88.225C36.911 88.3303 36.7608 88.3697 36.5955 88.3433C36.4238 88.322 36.2827 88.2405 36.1725 88.0989C36.0622 87.9573 36.0145 87.8031 36.0294 87.6364C36.0444 87.4696 36.1194 87.3336 36.2546 87.2284C36.3962 87.1181 36.5529 87.0736 36.7246 87.095C36.8913 87.1099 37.0324 87.1914 37.1476 87.3395Z"
              fill="#1F7BDF" />
            <path
              d="M41.9897 82.1227L37.6482 81.1466L38.0416 80.977L36.1132 84.7224L35.7002 83.8348L37.3033 80.7536L37.4471 81.0917L34.0686 80.3288L33.6659 79.4634L37.8168 80.4067L37.39 80.5918L39.4288 76.6196L39.847 77.5183L38.1291 80.7878L38.0289 80.4565L41.5767 81.2351L41.9897 82.1227Z"
              fill="#1F7BDF" />
            <path
              d="M38.413 74.94L32.6695 76.2833L32.8457 76.0158L33.4505 78.6016L32.7117 78.7744L31.4046 73.1858L32.1434 73.013L32.7482 75.5988L32.4716 75.4372L38.2151 74.094L38.413 74.94Z"
              fill="#1F7BDF" />
            <path
              d="M36.8406 68.8814C36.8245 69.5012 36.6713 70.0563 36.3811 70.5466C36.083 71.0285 35.6855 71.4058 35.1888 71.6785C34.6839 71.9511 34.1134 72.0791 33.4772 72.0626C32.8329 72.0458 32.2698 71.8884 31.7879 71.5902C31.306 71.2921 30.9327 70.8947 30.6681 70.3982C30.4036 69.9017 30.2794 69.3394 30.2957 68.7114C30.3122 68.0753 30.4655 67.5162 30.7555 67.034C31.0457 66.5437 31.4391 66.1663 31.9356 65.9017C32.4323 65.629 33.0029 65.501 33.6472 65.5177C34.2833 65.5342 34.8464 65.6917 35.3365 65.99C35.8186 66.28 36.1959 66.6775 36.4685 67.1824C36.7328 67.6871 36.8569 68.2534 36.8406 68.8814ZM36.0699 68.8614C36.0819 68.3965 35.9907 67.982 35.7961 67.6179C35.5934 67.2535 35.3071 66.9645 34.9372 66.7509C34.5594 66.5289 34.1218 66.4114 33.6243 66.3985C33.1186 66.3854 32.6755 66.48 32.2948 66.6823C31.9144 66.8764 31.6175 67.1503 31.4043 67.5038C31.183 67.8572 31.0664 68.2622 31.0545 68.7189C31.0426 69.1756 31.1381 69.5861 31.3408 69.9505C31.5354 70.3146 31.8175 70.6076 32.1871 70.8294C32.5568 71.0512 32.9944 71.1686 33.5001 71.1818C33.9976 71.1947 34.4407 71.1001 34.8295 70.898C35.2102 70.6957 35.5112 70.4179 35.7326 70.0645C35.9458 69.711 36.0582 69.3099 36.0699 68.8614Z"
              fill="#1F7BDF" />
            <path
              d="M36.2328 61.4947L30.2439 59.1689L30.5585 58.359L33.205 59.3868L34.6714 55.6109L32.0248 54.5831L32.3394 53.7732L38.3283 56.099L38.0137 56.9089L35.3672 55.8811L33.9008 59.657L36.5474 60.6848L36.2328 61.4947Z"
              fill="#1F7BDF" />
            <path
              d="M40.0191 51.7396C39.6522 52.299 39.2141 52.7141 38.7048 52.985C38.1886 53.2514 37.6476 53.3697 37.0817 53.3401C36.5089 53.306 35.9565 53.1144 35.4243 52.7654C34.8922 52.4165 34.4953 51.9952 34.2336 51.5016C33.9764 51.0013 33.8616 50.4772 33.8891 49.9294C33.9143 49.3703 34.0902 48.8417 34.4168 48.3437C34.7478 47.8388 35.1568 47.468 35.6438 47.2313C36.1284 46.9832 36.6526 46.8831 37.2164 46.9309C37.7734 46.9742 38.3214 47.1726 38.8603 47.526C38.8944 47.5484 38.9297 47.5764 38.9662 47.61C39.0003 47.6324 39.0378 47.657 39.0787 47.6839L36.0119 52.3605L35.4695 52.0048L38.2814 47.7171L38.3084 48.1445C37.9195 47.8895 37.519 47.7488 37.107 47.7226C36.6926 47.685 36.3062 47.7535 35.9478 47.9282C35.5893 48.1029 35.287 48.3778 35.041 48.753C34.7994 49.1214 34.6677 49.5082 34.6459 49.9134C34.624 50.3186 34.7129 50.7038 34.9126 51.0688C35.1122 51.4339 35.4098 51.7462 35.8055 52.0057L35.9181 52.0795C36.3274 52.3479 36.7472 52.4963 37.1773 52.5248C37.6051 52.5419 38.0128 52.4483 38.4005 52.244C38.7858 52.0284 39.1149 51.7125 39.3878 51.2963C39.6025 50.9688 39.7436 50.6272 39.8111 50.2715C39.883 49.9089 39.8667 49.547 39.7621 49.1857L40.5013 49.0851C40.6313 49.5118 40.6527 49.9551 40.5657 50.4151C40.4831 50.8683 40.3009 51.3098 40.0191 51.7396Z"
              fill="#1F7BDF" />
            <path
              d="M44.831 44.7151C44.4858 45.0267 44.0999 45.2871 43.6733 45.4963C43.2467 45.7055 42.813 45.8277 42.3722 45.8629L42.1466 45.1928C42.5297 45.1547 42.9137 45.0444 43.2986 44.8619C43.6779 44.6734 44.016 44.4452 44.3127 44.1774C44.604 43.9035 44.8232 43.6288 44.9701 43.3533C45.1171 43.0778 45.1883 42.8157 45.1837 42.5671C45.1791 42.3185 45.0975 42.1063 44.939 41.9307C44.7094 41.6763 44.4167 41.5834 44.0609 41.6518C43.6995 41.7141 43.319 41.9257 42.9193 42.2865L42.1017 43.0244L41.6753 42.552L42.4475 41.855C42.6837 41.6419 42.8653 41.423 42.9923 41.1985C43.1194 40.9739 43.1794 40.7604 43.1725 40.5578C43.1716 40.3499 43.1001 40.1671 42.9579 40.0097C42.8049 39.8401 42.6131 39.7494 42.3827 39.7376C42.1583 39.7203 41.9158 39.7743 41.6552 39.8996C41.3946 40.0249 41.1341 40.205 40.8737 40.4401C40.643 40.6593 40.4305 40.917 40.2363 41.2132C40.0366 41.5034 39.8699 41.8241 39.7364 42.1754L39.1038 41.8397C39.2512 41.4429 39.4284 41.0852 39.6353 40.7666C39.8428 40.4364 40.0859 40.1456 40.3645 39.8941C40.7351 39.5377 41.1183 39.2742 41.514 39.1039C41.9158 38.9281 42.295 38.8551 42.6516 38.8849C43.0028 38.9087 43.2986 39.0538 43.5391 39.3203C43.7523 39.5565 43.8655 39.828 43.8786 40.1348C43.8918 40.4416 43.821 40.7528 43.6662 41.0684C43.5114 41.3839 43.2795 41.6811 42.9707 41.9598L42.8421 41.7626C43.3872 41.2707 43.9068 40.994 44.401 40.9327C44.9011 40.8659 45.3152 41.0142 45.6432 41.3776C45.9001 41.6622 46.0331 41.9983 46.0421 42.3858C46.0457 42.7672 45.9416 43.1633 45.73 43.5742C45.5243 43.9795 45.2247 44.3599 44.831 44.7151Z"
              fill="#1F7BDF" />
            <path
              d="M50.8691 39.4549L50.1299 38.243L49.9775 38.0636L48.7411 36.0369C48.4565 35.5702 48.1054 35.2923 47.6877 35.203C47.2771 35.1095 46.8141 35.2199 46.2987 35.5343C45.9435 35.7509 45.6418 36.0162 45.3937 36.33C45.1455 36.6439 44.9695 36.9663 44.8655 37.2972L44.1935 36.9475C44.3276 36.5407 44.5515 36.1557 44.865 35.7924C45.1743 35.4222 45.5449 35.1053 45.9767 34.8419C46.6871 34.4086 47.3422 34.2527 47.9419 34.3742C48.5444 34.4845 49.0644 34.8984 49.502 35.6158L51.5795 39.0215L50.8691 39.4549ZM49.0101 40.6606C48.5991 40.9113 48.2001 41.0639 47.8129 41.1185C47.4285 41.1619 47.0839 41.114 46.7793 40.975C46.4704 40.8289 46.2203 40.5992 46.0292 40.2858C45.855 40.0002 45.7639 39.7021 45.7561 39.3916C45.7509 39.0698 45.8591 38.7458 46.0806 38.4196C46.3048 38.0821 46.678 37.7541 47.2004 37.4354L49.0913 36.282L49.4291 36.8357L47.559 37.9764C47.0297 38.2993 46.7179 38.6185 46.6237 38.934C46.5364 39.2453 46.5778 39.5402 46.7477 39.8188C46.9389 40.1322 47.2137 40.3086 47.5722 40.3479C47.9307 40.3873 48.3293 40.2731 48.7681 40.0055C49.186 39.7505 49.4873 39.4377 49.6721 39.067C49.8596 38.685 49.9125 38.2705 49.8309 37.8233L50.3103 38.2333C50.3919 38.6804 50.3245 39.1182 50.108 39.5465C49.8984 39.9706 49.5324 40.342 49.0101 40.6606Z"
              fill="#1F7BDF" />
            <path
              d="M55.2179 36.8493C54.6213 37.0706 54.0376 37.1391 53.4669 37.055C52.901 36.9603 52.3991 36.7331 51.9612 36.3735C51.5204 36.0061 51.1894 35.5242 50.9681 34.9275C50.744 34.3232 50.6807 33.742 50.7782 33.1837C50.8757 32.6255 51.1095 32.1298 51.4797 31.6967C51.8575 31.2607 52.3447 30.9321 52.9413 30.7108C53.4538 30.5208 53.9535 30.4486 54.4403 30.4943C54.9271 30.54 55.3629 30.7177 55.7475 31.0275L55.2926 31.6661C54.9726 31.4367 54.6326 31.3061 54.2728 31.2743C53.9129 31.2424 53.5532 31.2931 53.1937 31.4265C52.7653 31.5853 52.4159 31.828 52.1455 32.1546C51.8722 32.4735 51.7013 32.8457 51.633 33.2713C51.5646 33.697 51.6183 34.1469 51.7942 34.6211C51.9701 35.0954 52.2227 35.4716 52.5521 35.7497C52.8815 36.0278 53.2551 36.2025 53.6731 36.2737C54.0882 36.3372 54.51 36.2896 54.9384 36.1307C55.2979 35.9974 55.6037 35.8013 55.8557 35.5425C56.1078 35.2837 56.2818 34.9669 56.3777 34.5919L57.139 34.7795C57.0465 35.2575 56.8321 35.6764 56.4956 36.0361C56.1563 36.3882 55.7304 36.6593 55.2179 36.8493Z"
              fill="#1F7BDF" />
            <path
              d="M58.8128 37.4204C58.5148 37.4682 58.2211 37.4657 57.9317 37.4129C57.6504 37.3589 57.3975 37.2507 57.1732 37.0883L57.4693 36.384C57.655 36.5112 57.8469 36.6003 58.0451 36.6511C58.2526 36.7087 58.4732 36.7188 58.7068 36.6814C58.9887 36.6362 59.2175 36.5169 59.393 36.3235C59.5779 36.1369 59.7314 35.8314 59.8534 35.4069L60.1151 34.4107L60.1905 34.2623L61.8572 27.9594L62.7031 27.8238L60.664 35.4381C60.5526 35.8774 60.4076 36.2353 60.2288 36.5118C60.0581 36.787 59.8556 36.993 59.6214 37.1297C59.3885 37.2744 59.1189 37.3713 58.8128 37.4204ZM60.1481 34.9259L56.1781 28.8697L57.0723 28.7264L60.5916 34.136L60.1481 34.9259Z"
              fill="#1F7BDF" />
            <path
              d="M68.6989 33.1758L69.1018 27.9414L66.0148 27.7038L65.8317 29.1257C65.7823 29.5556 65.7213 29.9764 65.6487 30.3881C65.5842 30.8005 65.4938 31.1781 65.3774 31.521C65.2697 31.8563 65.1302 32.1279 64.9587 32.3356C64.7879 32.5352 64.5792 32.6419 64.3327 32.6556L63.4786 32.4304C63.7301 32.4579 63.9445 32.3844 64.1215 32.2098C64.2992 32.0271 64.4457 31.7725 64.5608 31.4458C64.676 31.1192 64.7701 30.746 64.8434 30.3261C64.9172 29.8981 64.9836 29.4614 65.0424 29.0159L65.2921 26.8872L70.0263 27.2516L69.5652 33.2425L68.6989 33.1758ZM63.0327 34.7158L63.2102 32.4097L70.592 32.9778L70.4145 35.2839L69.5971 35.221L69.7163 33.6714L63.9694 33.2291L63.8502 34.7787L63.0327 34.7158Z"
              fill="#1F7BDF" />
            <path
              d="M71.4943 32.7976L73.6793 26.7559L74.4964 27.0514L72.7609 31.8502L78.5357 28.5122L79.2607 28.7744L77.0757 34.8161L76.2586 34.5206L77.9983 29.7103L72.2308 33.0639L71.4943 32.7976Z"
              fill="#1F7BDF" />
            <path
              d="M80.0548 35.6588L83.137 30.6297L83.2033 30.943L80.9391 29.5554L81.3356 28.9085L86.2291 31.9075L85.8326 32.5544L83.5685 31.1668L83.8778 31.0837L80.7956 36.1128L80.0548 35.6588Z"
              fill="#1F7BDF" />
            <path
              d="M88.694 36.1915C89.2538 36.7738 89.5541 37.3363 89.5951 37.879C89.6417 38.4275 89.4292 38.9331 88.9574 39.3959C88.4682 39.8758 87.9326 40.0812 87.3506 40.0121C86.7743 39.9489 86.1891 39.6087 85.5951 38.9914L83.787 37.1308L88.3735 32.6318L88.9819 33.2521L87.3832 34.8203L88.694 36.1915ZM86.0325 38.4937C86.4438 38.9246 86.8424 39.1621 87.2285 39.2062C87.6262 39.2504 87.9968 39.104 88.3404 38.7669C88.684 38.4298 88.8288 38.0764 88.7746 37.7067C88.7263 37.3312 88.4937 36.9252 88.0768 36.4885L86.9202 35.2745L84.876 37.2798L86.0325 38.4937Z"
              fill="#1F7BDF" />
      </symbol>



<!-- FAQ section -->

      <symbol fill="none" width="36" height="36" viewBox="0 0 36 36">
          <path id='faqClose' d="M35.1562 17.5781C35.1562 18.1376 34.934 18.6741 34.5384 19.0697C34.1428 19.4653 33.6063 19.6875 33.0469 19.6875H19.6875V33.0469C19.6875 33.6063 19.4653 34.1428 19.0697 34.5384C18.6741 34.934 18.1376 35.1562 17.5781 35.1562C17.0187 35.1562 16.4822 34.934 16.0866 34.5384C15.691 34.1428 15.4688 33.6063 15.4688 33.0469V19.6875H2.10938C1.54993 19.6875 1.01341 19.4653 0.617822 19.0697C0.222237 18.6741 0 18.1376 0 17.5781C0 17.0187 0.222237 16.4822 0.617822 16.0866C1.01341 15.691 1.54993 15.4688 2.10938 15.4688H15.4688V2.10938C15.4688 1.54993 15.691 1.01341 16.0866 0.617822C16.4822 0.222237 17.0187 0 17.5781 0C18.1376 0 18.6741 0.222237 19.0697 0.617822C19.4653 1.01341 19.6875 1.54993 19.6875 2.10938V15.4688H33.0469C33.6063 15.4688 34.1428 15.691 34.5384 16.0866C34.934 16.4822 35.1562 17.0187 35.1562 17.5781Z"/>
      </symbol>       


<!-- reviews section -->

      <symbol>
          <path id='superMicroStar' d="m5 0 1.237 3.494L10 4.643 6.237 5.792 5 9.286 3.763 5.792 0 4.642l3.763-1.148L5 0Z"/>
      </symbol>

      <symbol>
          <path id="starTextReviews" fill="#fff" d="m47.786 31.061 4.022 10.738 12.23 3.532-12.23 3.532L47.786 59.6l-4.022-10.738-12.23-3.532 12.23-3.532 4.022-10.738ZM22.103 61.81l-6.18 1.755-.238-.836 2.731-.776-1.107-3.896-2.73.776-.238-.836 6.18-1.756.237.836-2.73.776 1.106 3.896 2.731-.776.238.836ZM19.754 53.89l-6.353.96-.13-.86 6.353-.96.13.86Zm-7.822.736a.615.615 0 0 1-.114.476.6.6 0 0 1-.408.247.562.562 0 0 1-.451-.118.615.615 0 0 1-.25-.42.638.638 0 0 1 .103-.473.561.561 0 0 1 .396-.246.615.615 0 0 1 .475.114.59.59 0 0 1 .249.42ZM18.708 52.448 15.4 49.47l.426.045-3.515 2.322.075-.976 2.906-1.902-.04.365-2.572-2.32.072-.951 3.158 2.855-.463-.048 3.722-2.465-.075.988-3.099 2.01.075-.338 2.712 2.416-.074.976ZM19.106 44.434l-5.666-1.64.285-.148-.74 2.551-.728-.21 1.597-5.514.728.211-.738 2.551-.162-.276 5.665 1.64-.241.835ZM20.7 38.381a3.385 3.385 0 0 1-1.215 1.227 3.178 3.178 0 0 1-1.594.404c-.574-.01-1.134-.178-1.68-.504-.554-.33-.968-.742-1.242-1.238a3.085 3.085 0 0 1-.393-1.588c.012-.563.18-1.114.501-1.653.326-.547.733-.96 1.222-1.238a2.973 2.973 0 0 1 1.584-.41c.566.006 1.126.174 1.68.504.547.326.96.739 1.242 1.239.278.489.413 1.02.403 1.594-.016.57-.185 1.124-.507 1.663Zm-.661-.395c.238-.399.361-.805.37-1.218a2.25 2.25 0 0 0-.325-1.176 2.685 2.685 0 0 0-.972-.95c-.435-.26-.867-.394-1.298-.404a2.165 2.165 0 0 0-1.179.28 2.36 2.36 0 0 0-.9.889 2.36 2.36 0 0 0-.353 1.214 2.25 2.25 0 0 0 .308 1.18c.213.375.537.692.972.95.427.256.86.39 1.298.404.431.01.83-.085 1.195-.285a2.41 2.41 0 0 0 .884-.883ZM23.787 31.643l-4.083-4.96.67-.552 1.805 2.191 3.127-2.574-1.804-2.192.67-.552 4.084 4.96-.67.552-1.805-2.192-3.128 2.575 1.805 2.192-.67.552ZM31.864 24.99c-.593.309-1.179.456-1.755.443a3.125 3.125 0 0 1-1.59-.485c-.482-.31-.87-.748-1.163-1.313-.293-.564-.433-1.126-.42-1.685a3.05 3.05 0 0 1 .47-1.54c.295-.474.707-.85 1.236-1.123.536-.279 1.074-.402 1.614-.37.544.021 1.05.19 1.519.508.464.31.845.752 1.142 1.324a.822.822 0 0 1 .051.125l.062.12-4.964 2.576-.299-.576 4.552-2.362-.186.386a2.458 2.458 0 0 0-.841-.956 2.153 2.153 0 0 0-1.112-.388 2.276 2.276 0 0 0-1.194.275 2.319 2.319 0 0 0-.913.818 2.127 2.127 0 0 0-.333 1.138c-.005.416.102.834.32 1.255l.062.119c.226.434.519.77.88 1.005.365.224.766.342 1.204.354.442 0 .883-.114 1.325-.343.348-.18.638-.41.87-.687.241-.28.404-.604.49-.97l.694.274a2.748 2.748 0 0 1-.596 1.191c-.293.355-.668.65-1.124.887ZM39.5 21.221c-.454.103-.918.141-1.393.115a3.584 3.584 0 0 1-1.314-.318l.132-.695c.353.155.741.247 1.166.276.423.021.83-.012 1.22-.1.388-.097.713-.229.976-.397s.454-.362.571-.581a.944.944 0 0 0 .099-.675c-.076-.334-.286-.558-.63-.673-.345-.122-.78-.124-1.306-.005l-1.074.243-.14-.62 1.014-.23c.31-.07.576-.173.797-.306.22-.134.377-.29.47-.47a.799.799 0 0 0 .082-.584.8.8 0 0 0-.369-.519c-.187-.125-.425-.196-.713-.215a3.34 3.34 0 0 0-.946.09c-.309.077-.62.198-.935.361a4.524 4.524 0 0 0-.907.595l-.387-.603a5.45 5.45 0 0 1 .989-.675c.343-.187.697-.321 1.063-.404.498-.13.96-.172 1.39-.127.436.044.802.166 1.098.366.295.193.482.464.561.815.07.31.036.602-.103.876-.139.274-.353.51-.642.71-.29.2-.637.345-1.043.437l-.015-.235c.716-.162 1.304-.149 1.765.04.469.186.757.518.866.996.084.374.035.732-.146 1.074-.184.334-.469.629-.854.883a3.963 3.963 0 0 1-1.343.555ZM47.34 19.59l-.052-1.418-.045-.231-.086-2.373c-.02-.546-.19-.96-.51-1.243-.312-.282-.77-.413-1.373-.39a3.395 3.395 0 0 0-1.18.25c-.37.152-.68.347-.933.585l-.415-.634c.316-.29.7-.515 1.151-.678.451-.172.93-.267 1.435-.285.831-.03 1.479.155 1.942.554.472.391.722 1.007.753 1.847l.144 3.986-.831.03Zm-2.212.142c-.48.017-.904-.045-1.268-.187a1.926 1.926 0 0 1-.83-.631 1.742 1.742 0 0 1-.318-.969 1.783 1.783 0 0 1 .2-.913c.153-.283.406-.513.759-.689.36-.184.847-.287 1.458-.31l2.214-.08.023.649-2.189.079c-.62.022-1.048.148-1.284.377a1.075 1.075 0 0 0-.325.832c.013.367.166.655.46.865.293.21.696.306 1.21.287.49-.018.905-.143 1.248-.376.35-.241.6-.577.747-1.006l.217.592c-.148.43-.42.778-.82 1.046-.39.267-.89.412-1.502.434ZM52.407 19.447c-.628-.099-1.17-.325-1.627-.678a3.151 3.151 0 0 1-.98-1.331c-.204-.536-.257-1.118-.158-1.747.1-.637.33-1.175.688-1.614a3.06 3.06 0 0 1 1.34-.953c.543-.195 1.129-.243 1.757-.144.54.085 1.011.267 1.413.545a2.4 2.4 0 0 1 .88 1.105l-.71.334a2.038 2.038 0 0 0-.698-.84 2.45 2.45 0 0 0-1.015-.396 2.426 2.426 0 0 0-1.27.122 2.224 2.224 0 0 0-.994.722c-.268.338-.441.757-.52 1.256-.08.5-.043.952.108 1.355.151.404.391.74.721 1.006.33.259.722.424 1.173.495.379.06.742.038 1.088-.064.347-.102.653-.293.92-.573l.573.536a2.501 2.501 0 0 1-1.177.78 3.37 3.37 0 0 1-1.512.084ZM55.262 21.705a2.591 2.591 0 0 1-.764-.438 1.88 1.88 0 0 1-.503-.654l.603-.47c.1.203.224.374.371.515.153.152.34.27.563.35.268.1.525.107.773.025.253-.072.536-.264.85-.574l.716-.74.139-.093 4.539-4.68.804.296-5.506 5.641c-.312.329-.614.57-.905.723a1.78 1.78 0 0 1-.832.241 2.164 2.164 0 0 1-.848-.142Zm2.386-1.521-.497-7.225.85.313.42 6.44-.773.472ZM65.96 22.844l2.915-4.367-2.576-1.718-.856 1.15c-.253.35-.513.688-.777 1.011a6.785 6.785 0 0 1-.791.855c-.259.24-.513.408-.764.506a.862.862 0 0 1-.703-.028l-.634-.614a.755.755 0 0 0 .668.122c.245-.072.497-.223.757-.451.26-.229.525-.508.795-.838.274-.337.545-.686.815-1.045l1.26-1.734 3.95 2.635-3.336 4.998-.722-.482Zm-5.694-1.431 1.284-1.924 6.158 4.11-1.284 1.923-.682-.455.863-1.293-4.794-3.199-.863 1.293-.682-.455ZM68.583 23.883l4.863-4.199.568.658-3.863 3.335 6.67-.084.504.584-4.863 4.198-.568-.657 3.872-3.343-6.671.1-.512-.592ZM74.647 30.569l5.15-2.876-.096.305-1.295-2.318.662-.37 2.8 5.01-.663.37-1.295-2.318.31.08-5.15 2.875-.423-.758ZM81.919 35.263c.203.782.19 1.42-.04 1.912-.228.502-.661.838-1.3 1.01-.66.18-1.228.097-1.702-.248-.471-.338-.815-.92-1.03-1.75l-.666-2.507 6.201-1.678.227.839-2.162.584.472 1.838Zm-3.448.704c.148.577.38.98.694 1.207.325.233.72.287 1.185.161.465-.125.764-.363.898-.712.141-.35.137-.819-.013-1.403l-.414-1.625-2.764.748.414 1.624Z"/>
      </symbol>

<!-- footer -->

      <symbol>
        <path id='footerStar' d="m13 0 2.115 9.825L25.99 6.5 17.23 13l8.76 6.5-10.875-3.325L13 26l-2.115-9.825L.01 19.5 8.77 13 .01 6.5l10.875 3.325L13 0Z"/>
      </symbol>


</svg>


