<svg xmlns="http://www.w3.org/2000/svg" display="none">

<!-- header -->

   <symbol>
      <path id='instagram' d="M19.995 13.33c-3.673 0-6.67 2.998-6.67 6.67 0 3.672 2.997 6.67 6.67 6.67 3.672 0 6.669-2.998 6.669-6.67 0-3.672-2.997-6.67-6.67-6.67ZM39.998 20c0-2.762.025-5.499-.13-8.256-.155-3.202-.886-6.044-3.227-8.385C34.294 1.012 31.457.287 28.255.132 25.493-.024 22.756.002 20 .002c-2.762 0-5.499-.026-8.256.13C8.542.287 5.7 1.017 3.36 3.359 1.012 5.705.287 8.542.132 11.744c-.156 2.762-.13 5.5-.13 8.256 0 2.757-.026 5.499.13 8.256.155 3.202.885 6.044 3.227 8.385 2.346 2.347 5.183 3.072 8.385 3.227 2.762.155 5.499.13 8.256.13 2.761 0 5.498.026 8.255-.13 3.202-.155 6.044-.885 8.386-3.227 2.346-2.346 3.072-5.183 3.227-8.385.16-2.757.13-5.494.13-8.256ZM19.995 30.262A10.247 10.247 0 0 1 9.733 20 10.247 10.247 0 0 1 19.995 9.738 10.247 10.247 0 0 1 30.256 20a10.247 10.247 0 0 1-10.261 10.262Zm10.682-18.548a2.394 2.394 0 0 1-2.397-2.396 2.394 2.394 0 0 1 2.397-2.397 2.394 2.394 0 0 1 2.215 3.314 2.394 2.394 0 0 1-2.215 1.48Z"/>
     </symbol> 

    <symbol>
      <path id="facebook" d="M34.1 0H5.897C2.653 0 0 2.653 0 5.896v28.208C0 37.347 2.653 40 5.896 40h28.208C37.347 40 40 37.347 40 34.104V5.896C39.997 2.653 37.347 0 34.1 0Zm-.378 21.35h-4.747v17.173h-7.102V21.349H18.32v-5.92h3.553v-3.552c0-4.83 2.005-7.702 7.71-7.702h4.742v5.918h-2.966c-2.217 0-2.365.83-2.365 2.374l-.019 2.963h5.373l-.626 5.92Z"/>
     </symbol>

     <symbol >
      <g id='tiktok'><path d="M41 10.667v18.666A11.667 11.667 0 0 1 29.333 41H10.667A11.667 11.667 0 0 1-1 29.333V10.667A11.667 11.667 0 0 1 10.667-1h18.666A11.667 11.667 0 0 1 41 10.667Z"/>
      <path stroke-linecap="round" stroke-linejoin="round" stroke-width="4" d="M15.333 20a7 7 0 1 0 7 7V6c.777 2.333 3.734 7 9.334 7"/></g>
     </symbol>


     <symbol>
       <path id ='star' d="m15 0 3.712 9.783L30 13l-11.288 3.217L15 26l-3.712-9.783L0 13l11.288-3.217L15 0Z"/>
     </symbol>

     <symbol>
       <path id='bigStar' d="m58.5 0 14.478 40.26L117 53.5 72.978 66.74 58.5 107 44.022 66.74 0 53.5l44.022-13.24L58.5 0Z"/>
     </symbol>

     <symbol>
       <g id='starText' clip-path="url(#a)" >
          <path fill="#007AFF" d="m62 17 8.662 23.126L97 47.732l-26.338 7.605L62 78.463l-8.662-23.126L27 47.732l26.338-7.606L62 17Z"/>

          <path  id='path' d="M26 85C14.835 74.33 5.74 59.89 10.045 45.057l.157-.53a51.956 51.956 0 0 1 3.641-8.949l.765-1.47c4.295-8.264 10.827-15.215 18.883-20.096a52.383 52.383 0 0 1 15.9-6.352l1.181-.26a60.186 60.186 0 0 1 26.615.181L85.5 9.527c9.45 3.493 16.683 10.873 22.805 19.107 5.265 7.08 6.803 16.19 5.196 24.866"  fill='transparent' />

          <text x="100" y="100" fill='#007AFF' font-size="26" letter-spacing="-3.5" dy="-20" text-anchor="middle">
              <textPath href='#path'>ніхто не засудить</textPath>
          </text>
        </g>
     </symbol>

     <!-- header -->

     <!-- about section -->
    <symbol>
        <path id='middleStar' d="m23 0 5.692 16.179L46 21.5l-17.308 5.321L23 43l-5.692-16.179L0 21.5l17.308-5.321L23 0Z"/>
    </symbol>

     <!-- about section -->
</svg>