<svg width="78" height="73" viewBox="0 0 78 73" fill="none" xmlns="http://www.w3.org/2000/svg">
<g clip-path="url(#clip0_702_10)">
<mask id="mask0_702_10" style="mask-type:luminance" maskUnits="userSpaceOnUse" x="0" y="0" width="78" height="73">
<path d="M50.6844 0.0208795L0.695801 36.6971L27.3156 72.9791L77.3042 36.3029L50.6844 0.0208795Z" fill="white"/>
</mask>
<g mask="url(#mask0_702_10)">
<path d="M33.3028 24.6337L44.7632 32.3594L58.7427 27.409L49.8248 39.2581L53.7547 52.5089L42.2943 44.7832L28.3148 49.7336L37.2327 37.8845L33.3028 24.6337Z" fill="#007AFF"/>
<path d="M40.2811 66.9547C31.877 65.6761 23.1192 62.0277 20.055 53.9279C20.0185 53.8313 19.9824 53.7346 19.9469 53.6375C19.325 51.9411 18.858 50.1938 18.5517 48.4178L18.3946 47.507C17.5121 42.3891 18.0385 37.1535 19.9161 32.3711C21.0587 29.461 22.6804 26.7733 24.7143 24.4189L25.1413 23.9247C28.3122 20.254 32.29 17.3787 36.7704 15.5187L41.0307 13.75C46.3006 12.3208 51.9007 13.3608 57.3016 15.1426C61.9461 16.6745 65.6461 20.3157 67.8343 24.7628" stroke="black"/>
</g>
</g>
<defs>
<clipPath id="clip0_702_10">
<rect width="62" height="45" fill="white" transform="translate(0.695801 36.6971) rotate(-36.2672)"/>
</clipPath>
</defs>
</svg>
