<svg width="117" height="116" viewBox="0 0 117 116" fill="none" xmlns="http://www.w3.org/2000/svg">
<g id="Group 9">
<path id="Ellipse 4" d="M113.193 49.5356C113.635 51.4574 112.625 53.6847 110.266 56.0945C107.917 58.4942 104.282 61.0183 99.6251 63.5151C90.3137 68.5071 76.9663 73.3631 61.7912 76.8932C46.6161 80.4234 32.5039 81.9552 21.9582 81.5825C16.6834 81.3961 12.3156 80.7336 9.15691 79.6152C5.98505 78.4921 4.10498 76.937 3.66283 75.0152C3.22067 73.0935 4.23047 70.8661 6.58949 68.4564C8.93874 66.0567 12.5734 63.5326 17.2307 61.0357C26.5421 56.0437 39.8895 51.1878 55.0647 47.6576C70.2398 44.1275 84.352 42.5956 94.8977 42.9683C100.172 43.1548 104.54 43.8172 107.699 44.9357C110.871 46.0588 112.751 47.6139 113.193 49.5356Z" stroke="white" stroke-width="0.5"/>
<path id="Ellipse 7" d="M103.57 91.6175C102.44 93.2289 100.115 93.9556 96.7563 93.792C93.4113 93.629 89.1178 92.585 84.1631 90.7559C74.2572 87.0991 61.7635 80.3251 49.0355 71.2972C36.3075 62.2694 25.7697 52.7074 19.0204 44.5509C15.6446 40.4712 13.2261 36.7544 11.9512 33.6406C10.671 30.5136 10.5721 28.068 11.7025 26.4566C12.8329 24.8453 15.1573 24.1185 18.5164 24.2821C21.8614 24.4451 26.155 25.4891 31.1097 27.3182C41.0155 30.975 53.5092 37.749 66.2372 46.7769C78.9652 55.8047 89.5031 65.3668 96.2523 73.5232C99.6281 77.6029 102.047 81.3197 103.322 84.4336C104.602 87.5606 104.701 90.0061 103.57 91.6175Z" stroke="white" stroke-width="0.5"/>
<path id="Ellipse 8" d="M35.7076 108.122C33.9552 107.239 32.8936 105.037 32.5533 101.672C32.2145 98.3217 32.6007 93.8969 33.6602 88.6976C35.7784 78.3028 40.576 64.87 47.555 50.868C54.534 36.8661 62.3651 24.962 69.3792 17.0344C72.8875 13.0693 76.1818 10.11 79.0538 8.3778C81.9383 6.63815 84.3281 6.17544 86.0805 7.05854C87.8328 7.94164 88.8944 10.1437 89.2347 13.5084C89.5735 16.8587 89.1874 21.2835 88.1279 26.4827C86.0096 36.8775 81.212 50.3103 74.2331 64.3123C67.2541 78.3143 59.423 90.2184 52.4088 98.1459C48.9005 102.111 45.6062 105.07 42.7342 106.803C39.8498 108.542 37.46 109.005 35.7076 108.122Z" stroke="white" stroke-width="0.5"/>
</g>
</svg>
