<svg width="29" height="29" viewBox="0 0 29 29" fill="none" xmlns="http://www.w3.org/2000/svg">
<path d="M27.9089 12.2136C28.0179 12.6874 27.7689 13.2366 27.1873 13.8307C26.6081 14.4224 25.7119 15.0447 24.5636 15.6604C22.2678 16.8912 18.9768 18.0885 15.2352 18.9589C11.4937 19.8292 8.01416 20.207 5.41401 20.1151C4.11347 20.0691 3.03654 19.9057 2.25773 19.63C1.47567 19.3531 1.01213 18.9696 0.903107 18.4958C0.794089 18.022 1.04306 17.4728 1.62471 16.8787C2.20394 16.287 3.1001 15.6647 4.24841 15.049C6.54423 13.8182 9.83517 12.6209 13.5767 11.7505C17.3183 10.8801 20.7978 10.5024 23.398 10.5943C24.6985 10.6403 25.7755 10.8036 26.5543 11.0794C27.3363 11.3563 27.7999 11.7397 27.9089 12.2136Z" stroke="white" stroke-width="0.12328"/>
<path d="M25.5364 22.5892C25.2577 22.9865 24.6846 23.1657 23.8563 23.1254C23.0316 23.0852 21.973 22.8278 20.7513 22.3768C18.309 21.4752 15.2285 19.805 12.0903 17.5791C8.95207 15.3532 6.35386 12.9956 4.68977 10.9845C3.85742 9.97861 3.26111 9.0622 2.94678 8.29445C2.63112 7.52346 2.60674 6.92048 2.88546 6.52318C3.16418 6.12588 3.73727 5.94668 4.5655 5.98703C5.39024 6.02721 6.44886 6.28463 7.67049 6.73561C10.1129 7.63723 13.1933 9.30744 16.3315 11.5333C19.4698 13.7592 22.068 16.1169 23.7321 18.1279C24.5644 19.1338 25.1607 20.0502 25.4751 20.818C25.7907 21.589 25.8151 22.1919 25.5364 22.5892Z" stroke="white" stroke-width="0.12328"/>
<path d="M8.8041 26.6585C8.37203 26.4408 8.11028 25.8979 8.02638 25.0683C7.94285 24.2422 8.03806 23.1512 8.29929 21.8693C8.82156 19.3064 10.0045 15.9944 11.7252 12.5421C13.4459 9.08973 15.3768 6.15465 17.1062 4.20004C17.9712 3.22238 18.7834 2.49274 19.4916 2.06566C20.2027 1.63673 20.792 1.52264 21.224 1.74038C21.6561 1.95812 21.9179 2.50105 22.0018 3.33065C22.0853 4.1567 21.9901 5.24768 21.7288 6.52961C21.2066 9.09255 20.0237 12.4045 18.3029 15.8569C16.5822 19.3092 14.6514 22.2443 12.922 24.1989C12.057 25.1765 11.2447 25.9062 10.5366 26.3333C9.82539 26.7622 9.23616 26.8763 8.8041 26.6585Z" stroke="white" stroke-width="0.12328"/>
</svg>
